<svg xmlns="http://www.w3.org/2000/svg" viewBox="0 0 48 48" width="48px" height="48px">
  <path fill="#FFB300" d="M38.8,30.4c-7.5,5.5-18.5,8.4-27.9,8.4c-13.2,0-25.1-4.9-34-13c-0.7-0.6-0.1-1.5,0.8-1c11.2,6.5,25,10.4,39.3,10.4c9.6,0,20.2-2,29.9-6.1C48.4,28.4,40.3,29.3,38.8,30.4z"/>
  <path fill="#FFB300" d="M41.4,27.4c-1-1.2-6.4-0.6-8.9-0.3c-0.7,0.1-0.8-0.6-0.2-1c4.4-3.1,11.6-2.2,12.4-1.2s-0.2,8.6-4.5,12.2c-0.6,0.5-1.2,0.2-0.9-0.4C40.3,33.8,42.4,28.7,41.4,27.4z"/>
  <path fill="#232F3E" d="M36.3,18.5c0-2.4,0.1-4.4-1.1-6.5c-1-1.8-2.7-2.9-4.5-2.9c-2.5,0-4,1.9-4,4.7c0,5.5,5,6.5,10.7,6.5V18.5z M40.3,30c-0.3,0.3-0.7,0.3-1,0.1c-1.4-1.2-1.7-1.7-2.4-2.8c-2.3,2.4-4,3.1-6.9,3.1c-3.5,0-6.3-2.2-6.3-6.5c0-3.4,1.8-5.7,4.4-6.8c2.3-1,5.4-1.2,7.8-1.4v-0.5c0-1,0.1-2.1-0.5-3c-0.5-0.8-1.4-1.1-2.3-1.1c-1.6,0-3,0.8-3.3,2.5c-0.1,0.4-0.3,0.7-0.7,0.7l-3.8-0.4c-0.3-0.1-0.7-0.3-0.6-0.8c0.9-4.8,5.2-6.2,9-6.2c2,0,4.5,0.5,6.1,2c2,1.9,1.8,4.4,1.8,7.2v6.5c0,2,0.8,2.8,1.6,3.9c0.3,0.4,0.3,0.8,0,1.1C42.6,28.2,40.9,29.6,40.3,30L40.3,30z"/>
</svg>
