<svg xmlns="http://www.w3.org/2000/svg" viewBox="0 0 48 48" width="48px" height="48px">
  <path fill="#42A5F5" d="M40.084,32.613c-0.848,1.835-1.254,2.655-2.342,4.274c-1.521,2.264-3.67,5.089-6.326,5.109c-2.361,0.018-2.971-1.507-6.176-1.482c-3.204,0.016-3.872,1.51-6.237,1.484c-2.654-0.022-4.688-2.568-6.21-4.826c-4.259-6.34-4.707-13.768-2.076-17.721c1.861-2.803,4.807-4.449,7.572-4.449c2.817,0,4.588,1.514,6.916,1.514c2.262,0,3.638-1.517,6.896-1.517c2.464,0,5.07,1.313,6.931,3.575C32.942,21.836,33.931,30.337,40.084,32.613z"/>
  <path fill="#42A5F5" d="M30.046,12.072c1.269-1.577,2.232-3.804,1.882-6.072c-2.069,0.138-4.491,1.418-5.905,3.075c-1.282,1.51-2.345,3.752-1.931,5.922C26.351,15.066,28.689,13.764,30.046,12.072z"/>
</svg>
